<?xml version="1.0" encoding="utf-8"?>
<!-- Generator: Adobe Illustrator 25.4.1, SVG Export Plug-In . SVG Version: 6.00 Build 0)  -->
<svg version="1.1" id="Layer_1" xmlns="http://www.w3.org/2000/svg" xmlns:xlink="http://www.w3.org/1999/xlink" x="0px" y="0px"
	 viewBox="500 500 2000 700" style="enable-background:new 500 500 2000 700;" xml:space="preserve">
<style type="text/css">
	.st0{fill:#D60015;}
</style>
<g>
	<g>
		<g>
			<path d="M1291.25,895.44c-15.18-0.9-29.56-2.86-43.13-5.89c-14.65-3.21-27.06-9.38-37.24-18.48
				c-6.97-8.04-10.9-16.88-11.79-26.52c-1.97-9.11-2.95-18.93-2.95-29.47c1.07-8.75,3.03-17.5,5.89-26.25
				c3.39-8.57,7.32-16.43,11.79-23.57c9.11-5.53,17.23-9.46,24.38-11.79c9.28-3.57,17.77-5.89,25.45-6.97l3.21-40.18l-52.24-2.68
				c-1.79-2.85-2.68-5.8-2.68-8.84v-8.84c7.32-4.82,16.7-7.77,28.13-8.84c13.75,0,24.2-0.27,31.34-0.8h63.76l67.78,4.55
				c1.25,3.04,1.88,5.36,1.88,6.97v8.84l-2.95,6.97c-13.39,1.25-22.59,1.87-27.59,1.87c-6.43,0.54-16.17,0.8-29.2,0.8l-0.8,38.31
				c9.28,0.9,21.34,3.21,36.16,6.97c11.25,3.04,21.34,8.84,30.27,17.41c6.07,10.54,9.64,20.99,10.72,31.34
				c0.71,8.04,1.07,20.18,1.07,36.43c-1.07,7.68-3.04,14.91-5.89,21.7c-3.04,7.32-7.95,13.49-14.73,18.48
				c-15,9.28-32.33,14.55-51.97,15.81c-6.43,0.18-16.17,0.62-29.2,1.34L1291.25,895.44z M1244.1,805.43
				c1.96-1.25,4.91-3.84,8.84-7.77c1.96-3.21,3.66-6.43,5.09-9.64l2.68-15h-2.68l-27.59,9.91c-3.04,7.86-4.65,12.41-4.82,13.66
				c-1.43,7.68-2.14,12.95-2.14,15.81h4.02L1244.1,805.43z M1389.02,843.73l1.87-11.79h-3.75l-14.73,2.95
				c-3.04,0.72-8.57,1.07-16.61,1.07c-5.18-0.89-11.34-3.21-18.48-6.97c-6.07-3.21-11.25-7.5-15.54-12.86
				c-4.29-5.71-6.97-12.95-8.04-21.7c-1.43-11.96-2.14-20.09-2.14-24.38h-19.29c-0.72,6.25-3.04,16.34-6.97,30.27
				c-4.11,10.72-10.27,19.2-18.48,25.45c-5.36,4.11-11.25,7.15-17.68,9.11c-7.33,1.97-14.2,2.95-20.63,2.95l-4.02-1.07v2.95
				l7.77,12.86c12.32,6.97,25.36,10.81,39.11,11.52c17.5,1.43,31.97,1.79,43.4,1.07l16.61-1.88c7.14-0.89,13.03-1.51,17.68-1.87
				c12.32-1.25,22.77-3.57,31.34-6.97L1389.02,843.73z M1314.82,738.72l5.89-31.34h-28.4l1.88,35.36h20.63V738.72z M1390.1,797.66
				l-3.75-9.64c-2.68-1.61-9.56-5-20.63-10.18c-3.39-0.89-10.98-2.14-22.77-3.75v12.86l2.14,7.5c1.07,3.39,2.68,5.72,4.82,6.97
				c5.53,3.39,10.8,5.09,15.81,5.09h16.61l7.77-1.07V797.66z"/>
			<path d="M1486,782.12c-2.86-7.32-4.29-13.84-4.29-19.56c-0.36-1.96-0.63-5.09-0.8-9.38l-0.8-9.91c0.18-1.96,0.44-4.91,0.8-8.84
				l0.8-8.57c0-5.89,1.16-10.98,3.48-15.27l9.91-0.8l3.48,0.8c11.61-2.14,24.82-4.19,39.65-6.16l40.72-2.41v-1.88
				c-1.79-3.57-3.93-9.2-6.43-16.88c-1.61-3.57-2.95-9.2-4.02-16.88c2.5-1.61,5.71-3.3,9.64-5.09c2.5-1.78,5.71-2.68,9.64-2.68
				c6.07,7.15,10.18,13.66,12.32,19.56c3.39,9.64,5.53,17.24,6.43,22.77c14.47,0,30.63,0.9,48.49,2.68
				c16.43,2.68,30.54,8.57,42.33,17.68c3.57,4.82,5.63,8.4,6.16,10.72c1.07,4.65,1.61,8.66,1.61,12.05
				c-0.9,6.43-2.68,11.79-5.36,16.07c-3.04,5.54-6.52,10.27-10.45,14.2l-2.68,0.8l-10.72-8.04l-2.41-5.36
				c1.61-3.39,3.39-6.87,5.36-10.45c1.07-3.75,1.61-7.23,1.61-10.45c-8.04-5.18-15.99-8.13-23.84-8.84l-27.32-2.95h-47.95
				l-73.13,2.95v24.65c0,6.07-0.54,14.29-1.61,24.64l-20.63,1.88V782.12z M1615.12,898.92c-12.68-3.57-21.79-6.52-27.33-8.84
				c-8.22,3.75-18.31,6.7-30.27,8.84c-11.61,1.78-22.41,2.32-32.41,1.61l-2.68-11.52c0.54-1.25,0.8-3.3,0.8-6.16
				c0-1.61,1.25-2.77,3.75-3.48l23.84-5.09v-2.14c-5-2.68-8.57-5.89-10.72-9.64c-3.93-4.11-6.61-7.86-8.04-11.25l-0.8-16.07
				l3.75-20.36h-19.82c-6.96,0.9-12.77-0.62-17.41-4.55l-0.8-12.06l2.41-4.55c5.89-1.25,14.11-2.41,24.65-3.48
				c2.68-0.36,6.87-0.62,12.59-0.8l12.32-0.8l7.77-16.07l8.84-14.2l9.11-0.8l9.64,5.09l0.8,4.55l-6.96,19.29h5.36l0.8-0.8h64.29
				l43.13,5.36l1.34,7.23l-3.75,11.25l-51.17,3.75c0,11.61-1.79,22.15-5.36,31.61c-5,11.25-10.54,20.63-16.61,28.13l33.49,12.59
				l0.8,6.16c-1.79,6.25-2.41,8.66-1.87,7.23c-1.07,3.21-2.86,5.18-5.36,5.89C1634.14,903.38,1624.76,901.42,1615.12,898.92z
				 M1588.6,857.93c4.64-2.5,8.21-5.71,10.72-9.64c3.39-4.46,5.8-8.21,7.23-11.25l5.89-23.04h-29.74l-17.95,1.61
				c-2.32,5.54-3.75,9.74-4.29,12.59c-1.07,5.89-1.61,10.27-1.61,13.13c3.93,4.29,8.48,7.86,13.66,10.72
				c-1.25-0.89,3.84,1.43,15.27,6.97L1588.6,857.93z"/>
			<path d="M1755.49,823.11v-3.75c7.14-11.96,12.77-21.79,16.88-29.47c1.78-3.93,6.25-14.11,13.39-30.54l12.05-0.8l10.72,3.75
				l0.8,13.93c-2.14,10.72-5.36,20.18-9.64,28.4c-5.89,10.54-12.05,19.02-18.48,25.45l-12.86,7.77L1755.49,823.11z M1831.84,883.11
				v-3.21c2.14-3.03,4.46-5.36,6.96-6.97c1.07-0.18,2.41-0.71,4.02-1.61l3.75-2.14l2.95-0.8c0.36-0.89,0.89-2.41,1.61-4.55
				c0.54-2.14,1.07-3.93,1.61-5.36c0-4.46,0.27-7.77,0.8-9.91v-44.74l-3.21-61.88v-46.08l3.21-9.91c3.75-1.61,6.07-2.59,6.96-2.95
				h7.77l6.97,5.09c2.68,23.22,4.29,39.47,4.82,48.76c0.36,6.25,0.98,14.47,1.88,24.65l2.14,24.38v53.04
				c-1.61,14.29-3.31,24.38-5.09,30.27c-3.39,10.9-8.93,19.38-16.61,25.45c-1.97,2.14-4.29,3.21-6.97,3.21h-9.64L1831.84,883.11z
				 M1947.57,824.98c-5.54-6.07-10.45-13.57-14.73-22.5c-2.86-6.97-4.82-13.75-5.89-20.36c-1.25-10.72-1.87-17.59-1.87-20.63
				l1.87-4.82l13.93-1.07c1.25,0.72,3.21,1.07,5.89,1.07c1.43,0.54,2.68,1.79,3.75,3.75c3.04,9.11,7.59,20.63,13.66,34.56
				c4.82,10.54,10.72,21.26,17.68,32.15l-5.89,8.84c-1.79,2.68-4.38,5.27-7.77,7.77C1959.09,838.74,1952.21,832.48,1947.57,824.98z"
				/>
			<path d="M2042.67,842.66c-5.18-2.14-9.11-5.09-11.79-8.84c-3.39-3.57-5.72-8.39-6.96-14.47c-0.18-1.78-0.63-4.46-1.34-8.04
				l-1.34-7.77c1.07-6.97,2.32-12.14,3.75-15.54c2.32-5.89,5.26-10.54,8.84-13.93c3.75-3.03,10.27-6.6,19.56-10.72
				c7.32-2.14,14.55-2.85,21.7-2.14c2.85,0.72,7.77,2.41,14.73,5.09c5,1.97,9.2,5.18,12.59,9.64c4.46,5.72,7.05,11.61,7.77,17.68
				c1.43,8.75,1.78,15.9,1.07,21.43l-2.95,8.84c-1.07,2.86-3.04,5.81-5.89,8.84c-7.68,5.54-14.83,9.2-21.43,10.98
				c-9.47,1.97-18.04,2.95-25.72,2.95C2049.72,845.43,2045.52,844.09,2042.67,842.66z M2082.85,809.18l1.07-8.84l-4.02-11.52
				l-12.59-3.21h-13.93l-3.75,2.41c-2.14,2.86-3.21,5.72-3.21,8.57v10.72l5.09,10.72h16.61l14.73-4.82V809.18z M2116.07,758.28
				v-4.82c6.07-11.07,11.34-25.09,15.81-42.06c3.39-12.86,5.71-27.95,6.97-45.27c0.89-0.71,3.75-1.96,8.57-3.75
				c3.39-0.89,6.7-0.89,9.91,0c2.85,5.18,4.82,10.45,5.89,15.81v17.41l-1.88,14.73h4.82l27.32-4.02h45l20.63,4.02l1.07,12.59
				l-1.88,6.97c-13.75,1.61-31.17,2.95-52.24,4.02c-20.36,1.25-38.22,1.87-53.58,1.87c-1.79,5.36-4.38,10.9-7.77,16.61
				c-3.39,5.36-7.41,10.27-12.06,14.73l-3.75,1.07L2116.07,758.28z M2164.02,888.47c-6.25-3.57-10.81-6.79-13.66-9.64
				c-4.47-5.71-7.06-10.62-7.77-14.73c-1.43-6.25-1.79-12.05-1.07-17.41c0.89-3.75,2.85-8.39,5.89-13.93
				c1.78-3.57,4.46-7.14,8.04-10.72c8.57-7.68,18.39-14.55,29.47-20.63c8.93-4.64,17.68-11.79,26.25-21.43l-34.29-0.8l-20.63,1.88
				l-2.68-1.88l-3.21-6.16c-1.25-2.5-1.61-4.73-1.07-6.7l6.16-5.89c7.86-2.86,17.32-4.91,28.4-6.16c13.93-1.07,24.02-1.34,30.27-0.8
				c1.43,0.36,3.39,0.8,5.89,1.34l5.89,1.61c2.86,1.07,6.07,3.39,9.64,6.97c3.03,4.65,4.73,7.59,5.09,8.84
				c1.07,3.04,1.07,6.61,0,10.72c-0.72,3.93-2.68,8.22-5.89,12.86c-2.32,3.58-5.89,7.77-10.72,12.59
				c-10.18,8.75-20,15.27-29.47,19.56c-9.64,5.36-18.13,13.22-25.45,23.57v4.82c1.25,3.39,2.85,5.36,4.82,5.89l2.95,2.14
				c1.25,0.9,2.23,1.52,2.95,1.88c4.46,1.25,9.02,1.87,13.66,1.87h14.73c1.61-0.36,4.19-0.8,7.77-1.34
				c3.57-0.71,6.25-1.25,8.04-1.61c4.29-0.89,8.48-3.57,12.59-8.04l5.89-10.45l9.64-1.07l6.16,2.95l0.8,9.91l-3.75,9.64
				c-2.14,4.11-4.47,7.41-6.97,9.91c-10.54,7.14-20.99,11.69-31.34,13.66c-11.25,2.85-23.67,3.84-37.24,2.95
				C2173.75,893.38,2168.48,891.33,2164.02,888.47z"/>
		</g>
		<g>
			<g>
				<path class="st0" d="M1297.68,1054.25c-0.19-0.38-1.23-0.94-3.11-1.7c-1.7-0.75-2.69-1.79-2.97-3.11
					c1.7-3.2,4.48-7.54,8.34-13.01l8.77-12.31c5.18-7.83,9.95-15.51,14.29-23.06l-8.06-10.04c-3.3-4.05-6.04-7.35-8.2-9.9
					c-6.7-8.01-11.93-14.99-15.7-20.93v-2.55c1.13-6.51,3.63-9.48,7.5-8.91c5.75,5.09,11.83,11.13,18.25,18.1
					c6.88,7.73,12.78,14.05,17.68,18.95c6.51-9.15,11.46-16.08,14.85-20.79c5.85-7.35,11.08-14.05,15.7-20.08
					c1.98,0.19,3.91,1.23,5.8,3.11c-0.28-0.38,0.71,0.28,2.97,1.98c1.41,1.04,2.12,2.36,2.12,3.96c-0.47,0.94-5.75,9.01-15.84,24.19
					c-2.45,3.58-6.93,11.08-13.44,22.49c2.07,2.74,4.95,6.36,8.63,10.89c4.15,5.09,7.02,8.68,8.63,10.75
					c8.96,11.13,15.13,19.38,18.53,24.75l-3.25,5.23c-1.13,1.89-3.21,3.16-6.22,3.82c-6.88-6.22-13.3-12.78-19.24-19.66
					c-6.32-7.07-12.54-13.77-18.67-20.08c-1.98,2.74-7.31,9.95-15.98,21.64c-4.9,6.41-10.37,13.15-16.41,20.23
					C1300.84,1057.56,1299.19,1056.23,1297.68,1054.25z"/>
				<path class="st0" d="M1394.85,974.48c-2.26-1.51-3.77-3.82-4.53-6.93c-0.47-1.89-0.14-4.62,0.99-8.2l1.13-1.7
					c0.47-1.04,0.9-1.89,1.27-2.55c1.6-2.07,4.01-3.39,7.21-3.96c4.71-0.94,8.58-0.28,11.6,1.98c2.36,1.79,3.72,4.05,4.1,6.79
					c1.41,5.66,0.14,9.9-3.82,12.73c-3.11,2.36-7.31,3.44-12.59,3.25C1398.43,976.08,1396.64,975.61,1394.85,974.48z
					 M1396.27,1058.78l-1.98-17.68v-27.02l0.85-15.7c0.57-6.03,1.56-10.65,2.97-13.86l9.05-0.28l2.83,0.99
					c1.41,5.85,2.17,12.31,2.26,19.38c0.28,4.34,0.42,10.94,0.42,19.8l-0.99,17.82c-0.1,2.08-0.99,7.87-2.69,17.4l-8.91,0.28
					L1396.27,1058.78z"/>
				<path class="st0" d="M1447.61,949.87c3.39-2.45,6.88-3.3,10.47-2.55c3.11,0.76,5.66,2.74,7.64,5.94
					c2.17,3.21,2.83,6.7,1.98,10.47c-0.85,4.15-2.69,7.31-5.52,9.48c-0.94,0.85-2.31,1.6-4.1,2.26c-3.87,5.47-7.31,9.24-10.33,11.31
					c-0.57,0.28-2.36-0.66-5.37-2.83c2.26-3.11,4.19-6.41,5.8-9.9c-1.7-1.04-3.11-2.36-4.24-3.96c-2.74-3.11-3.73-6.65-2.97-10.61
					C1441.72,955.43,1443.93,952.23,1447.61,949.87z"/>
				<g>
					<path class="st0" d="M1479.14,1030.77c1.51-5.85,2.45-9.29,2.83-10.33c2.36-5.56,5.89-9.52,10.61-11.88
						c7.26-5.66,16.78-8.35,28.57-8.06c-5.57-5.37-16.5-6.84-32.81-4.38l-6.51,2.97c-1.51-3.11-2.4-5.28-2.69-6.51
						c-0.1-1.32-0.14-3.58-0.14-6.79c3.68-2.83,9.19-5.47,16.55-7.92c6.03-1.89,12.26-2.64,18.67-2.26
						c3.58,0.38,7.31,1.84,11.17,4.39c3.49,1.7,6.65,4.43,9.48,8.2c4.9,6.04,7.83,12.73,8.77,20.09c1.32,7.54,1.74,15.32,1.27,23.34
						l-0.28,10.89c0,1.7,0.94,3.91,2.83,6.65c1.98,4.9,1.32,8.25-1.98,10.04c-6.13,2.07-10.23,1.89-12.31-0.57l-1.7-3.82
						c-2.17,1.98-6.08,3.63-11.74,4.95c-6.79,1.6-13.53,1.89-20.23,0.85C1485.83,1057.7,1479.04,1047.75,1479.14,1030.77z
						 M1527.94,1038.13l-0.99-19.09c-8.68-1.98-15.75-1.65-21.22,0.99c-4.34,2.17-7.07,5.42-8.2,9.76
						c-0.94,5.09-0.05,9.19,2.69,12.31c2.45,2.74,5.23,3.91,8.35,3.54C1516.76,1044.68,1523.22,1042.18,1527.94,1038.13z"/>
					<path class="st0" d="M1612.09,1038.55c1.79-14.05,1.13-23.43-1.98-28.15c-2.74-3.87-7.73-5.8-14.99-5.8
						c-6.32,0.47-10.89,3.3-13.72,8.49c-0.1,25.74-0.85,40.69-2.26,44.84c-1.79,1.32-4.2,1.93-7.21,1.84c-2.92,0-4.86-0.61-5.8-1.84
						c-3.87-22.16-3.73-45.26,0.42-69.31c1.13-1.22,3.02-1.98,5.66-2.26c2.64-0.19,4.95,0.24,6.93,1.27l1.7,4.95
						c3.02-2.55,6.27-4.39,9.76-5.52c3.3-1.41,7.68-1.74,13.15-0.99c7.64,1.13,13.44,4.72,17.4,10.75
						c3.49,5.19,5.56,10.8,6.22,16.83c1.13,11.98-0.14,26.92-3.82,44.84c-0.66,0.66-2.69,0.94-6.08,0.85
						c-3.58-0.09-6.32-0.71-8.2-1.84C1609.54,1057.32,1610.49,1051,1612.09,1038.55z"/>
					<path class="st0" d="M1747.8,1061.33c-9.43,0.38-17.35-1.37-23.76-5.23c-9.15-8.49-13.11-14.94-11.88-19.38
						c3.02-2.64,6.55-4.48,10.61-5.52c1.04,1.98,3.3,4.57,6.79,7.78c10.18,6.41,19.61,7.54,28.29,3.39c3.58-1.7,6.22-4.01,7.92-6.93
						c1.7-3.02,2.03-6.03,0.99-9.05c-1.7-4.62-5.94-8.11-12.73-10.47c-1.23-0.47-6.65-1.74-16.27-3.82
						c-8.11-1.79-15.42-5.89-21.92-12.31c-2.26-2.73-3.68-5.8-4.24-9.19c-0.66-3.68-0.85-7.21-0.57-10.61c0.57-5,1.93-9.43,4.1-13.3
						c1.89-4.81,4.43-8.49,7.64-11.03c3.02-3.2,7.5-5.94,13.44-8.2c5.85-1.32,11.22-1.7,16.12-1.13c4.71,0.57,10.14,2.17,16.27,4.81
						c3.39,1.23,8.39,4.62,14.99,10.18c-0.57,4.15-1.65,6.98-3.25,8.49c-2.55,1.98-4.48,2.97-5.8,2.97
						c-4.06-3.2-8.2-5.61-12.45-7.21c-7.54-2.26-14.95-2.87-22.21-1.84c-6.7,2.64-10.52,6.41-11.46,11.32
						c-2.36,5.37-1.46,9.76,2.69,13.15c5.94,3.21,14.38,6.13,25.32,8.77c8.2,2.17,15.51,6.7,21.92,13.58
						c5.37,6.32,7.73,13.96,7.07,22.91c-0.47,8.49-5,15.47-13.58,20.93C1765.34,1058.73,1757.33,1061.04,1747.8,1061.33z"/>
					<path class="st0" d="M1849.5,1038.55c1.79-14.05,1.13-23.43-1.98-28.15c-2.74-3.87-7.73-5.8-14.99-5.8
						c-6.32,0.47-10.89,3.3-13.72,8.49c-0.1,25.74-0.85,40.69-2.26,44.84c-1.79,1.32-4.2,1.93-7.21,1.84c-2.92,0-4.86-0.61-5.8-1.84
						c-3.87-22.16-3.73-45.26,0.42-69.31c1.13-1.22,3.02-1.98,5.66-2.26c2.64-0.19,4.95,0.24,6.93,1.27l1.7,4.95
						c3.02-2.55,6.27-4.39,9.76-5.52c3.3-1.41,7.68-1.74,13.15-0.99c7.64,1.13,13.44,4.72,17.4,10.75
						c3.49,5.19,5.56,10.8,6.22,16.83c1.13,11.98-0.14,26.92-3.82,44.84c-0.66,0.66-2.69,0.94-6.08,0.85
						c-3.58-0.09-6.32-0.71-8.2-1.84C1846.95,1057.32,1847.89,1051,1849.5,1038.55z"/>
					<path class="st0" d="M1873.26,1030.77c1.51-5.85,2.45-9.29,2.83-10.33c2.36-5.56,5.89-9.52,10.61-11.88
						c7.26-5.66,16.78-8.35,28.57-8.06c-5.57-5.37-16.5-6.84-32.81-4.38l-6.51,2.97c-1.51-3.11-2.4-5.28-2.69-6.51
						c-0.1-1.32-0.14-3.58-0.14-6.79c3.68-2.83,9.19-5.47,16.55-7.92c6.03-1.89,12.26-2.64,18.67-2.26
						c3.58,0.38,7.31,1.84,11.17,4.39c3.49,1.7,6.65,4.43,9.48,8.2c4.9,6.04,7.83,12.73,8.77,20.09c1.32,7.54,1.74,15.32,1.27,23.34
						l-0.28,10.89c0,1.7,0.94,3.91,2.83,6.65c1.98,4.9,1.32,8.25-1.98,10.04c-6.13,2.07-10.23,1.89-12.31-0.57l-1.7-3.82
						c-2.17,1.98-6.08,3.63-11.74,4.95c-6.79,1.6-13.53,1.89-20.23,0.85C1879.95,1057.7,1873.16,1047.75,1873.26,1030.77z
						 M1922.06,1038.13l-0.99-19.09c-8.68-1.98-15.75-1.65-21.22,0.99c-4.34,2.17-7.07,5.42-8.2,9.76
						c-0.94,5.09-0.05,9.19,2.69,12.31c2.45,2.74,5.23,3.91,8.35,3.54C1910.88,1044.68,1917.34,1042.18,1922.06,1038.13z"/>
					<path class="st0" d="M1974.67,1055.53c-3.68-1.79-7.4-4.67-11.17-8.63c-3.87-5.18-6.41-10.28-7.64-15.28
						c-0.94-3.39-1.41-9.24-1.41-17.54c0.66-6.32,2.17-11.83,4.53-16.55c2.45-5.75,5.89-10.61,10.33-14.57
						c2.83-2.64,6.84-5.33,12.02-8.06c10.75-3.3,19.71-2.26,26.87,3.11c6.22,3.96,10.56,8.16,13.01,12.59
						c-0.85,1.98-2.5,3.96-4.95,5.94c-2.45,2.07-4.29,2.83-5.52,2.26c-3.02-2.73-6.08-4.81-9.19-6.22c-5-1.7-9.85-1.51-14.57,0.57
						c-3.11,1.41-5.47,3.11-7.07,5.09c-5.94,6.6-8.44,14.1-7.5,22.49c0.85,7.54,3.68,13.44,8.49,17.68
						c4.71,4.15,9.9,5.61,15.56,4.38c4.34-0.28,9.71-2.21,16.12-5.8c2.36,1.23,3.91,2.12,4.67,2.69c1.51,1.6,2.59,3.07,3.25,4.39
						l0.57,2.83c-6.7,6.79-14.1,10.7-22.21,11.74c-3.96,1.04-7.64,1.32-11.03,0.85C1982.45,1058.54,1978.06,1057.22,1974.67,1055.53
						z"/>
					<path class="st0" d="M2033.22,1058.36c-1.23-5.19-1.84-14.33-1.84-27.44v-33.24c0-7.64,0.33-15.46,0.99-23.48
						c0.28-8.49,1.37-16.03,3.25-22.63c1.32-1.04,2.64-1.56,3.96-1.56c4.43,0,7.54,0.52,9.34,1.56c1.04,4.43,1.37,20.18,0.99,47.24
						c6.03-5.47,11.64-10.13,16.83-14c5.38-3.96,11.46-7.35,18.25-10.18c3.87,4.15,6.08,7.87,6.65,11.17
						c-5.28,5.85-9.19,9.9-11.74,12.16l-12.87,9.9c8.49,8.49,14.1,14.29,16.83,17.4c5,5.85,9.66,12.64,14,20.37
						c-0.66,0.57-1.51,1.41-2.55,2.55l-2.41,2.69c-1.89,1.7-3.58,2.69-5.09,2.97c-7.07-5.47-13.11-11.08-18.1-16.83
						c-5.28-5.85-10.42-12.21-15.42-19.09l-5.52,2.4l-1.7,37.76c-1.6,0.94-3.25,1.41-4.95,1.41h-5.38L2033.22,1058.36z"/>
					<path class="st0" d="M2138.31,1060.48c-7.45,0.66-14.38-0.33-20.79-2.97c-7.07-3.68-11.17-7.21-12.31-10.61
						c0.94-4.71,3.35-7.68,7.21-8.91c6.41,5.66,14.8,8.06,25.18,7.21c2.73-0.28,4.9-1.04,6.51-2.26c1.98-1.6,2.45-3.68,1.41-6.22
						c-1.23-1.51-7.64-4.76-19.24-9.76c-5.56-1.98-11.13-5.52-16.69-10.61c-3.02-3.39-4.53-7.73-4.53-13.01
						c0-5.75,1.89-10.7,5.66-14.85c9.52-8.49,20.74-10.94,33.66-7.35c8.01,2.55,13.44,5.94,16.27,10.18
						c0.19,1.89-0.57,3.77-2.26,5.66c-1.89,1.98-3.91,2.88-6.08,2.69c-6.04-3.49-11.83-5.14-17.4-4.95
						c-7.73-0.28-11.69,3.02-11.88,9.9c1.13,3.3,3.58,5.75,7.36,7.35c1.22,0.47,2.97,1.04,5.23,1.7c2.73,0.66,4.53,1.13,5.37,1.41
						c13.77,4.9,21.64,10.89,23.62,17.96c2.17,9.71-0.85,17.02-9.05,21.92C2150.76,1057.98,2145.01,1059.82,2138.31,1060.48z"/>
				</g>
			</g>
		</g>
	</g>
	<g>
		<g>
			<path class="st0" d="M1148.96,856.55c-3.06-36.19-13.9-70.26-31.65-102.05c-22.69-40.64-53.83-73.25-93.65-97.27
				c-46.2-27.86-96.4-40.35-150.36-37.44c-31.68,1.7-62.15,8.64-91.4,20.96c-30.67,12.92-58.11,30.79-81.91,54.06
				c-17.08,16.7-31.43,35.55-42.68,56.71c-15.78,29.69-24.23,61.28-25.06,94.91c-0.47,19.34,1.44,38.44,5.69,57.33
				c8.38,37.3,26.01,72.01,51.62,100.4c24.63,27.31,54.44,47.08,89.3,59.17c29.38,10.19,59.62,14.62,90.59,11.61
				c44.67-4.34,82.69-22.92,112.99-56.14c35.26-38.65,50.82-84.31,45.53-136.46c-2.81-27.75-14.39-52.14-32.91-72.92
				c-24-26.92-54.2-41.85-90.13-45.78c-41.13-4.51-82.24,15.85-102.8,51.75c-11.9,20.78-16.85,43.11-12.75,66.81
				c2.19,12.65,7.78,24.44,15.72,34.49c5.58,7.07,19.57,24.18,29.94,22.92c10.23-1.27-9.28-22.56-11.59-25.53
				c-17.11-21.93-18.59-51.58-4.53-75.44c15.96-27.09,40.28-39.54,71.76-37.51c35.13,2.26,67.36,28.5,76.69,62.27
				c10.62,38.43-3.71,81.16-35.63,105.94c-22.32,17.33-47.56,24.65-75.74,21.94c-33.12-3.18-60.87-17.22-82.34-42.4
				c-32.81-38.48-37.71-82.53-22.3-129.3c11.08-33.62,32.56-59.65,62.53-78.55c24.53-15.48,51.49-22.85,80.33-22.64
				c24.62,0.18,48.43,5.14,71,15.23c38.5,17.21,67.88,44.36,87.71,81.59c16.16,30.33,22.71,62.74,20.6,97.08
				c-1.2,19.66-4.72,38.8-11.01,57.39c-12.55,37.12-33.44,68.85-62.79,94.84c-26.2,23.2-57.91,40.16-91.79,48.94
				c-17.06,4.42-34.66,6.75-52.29,6.76c-8.85,0.01-17.71-0.57-26.49-1.75c-6.98-0.94-15.06-3.71-22.14-2.41
				c-3.84,0.7-7.28,2.28-7.71,6.62c-0.26,2.68,0.79,5.28,2.64,7.25c3.33,3.55,8,4.75,12.55,5.76c53.8,11.9,116.06,10.94,167.78-9.18
				c40.89-15.91,75.92-40.34,104.35-73.83C1134.76,996.03,1155.22,930.37,1148.96,856.55z"/>
		</g>
		<path class="st0" d="M587.97,881.39c-1.25-37.64,4.6-75.73,17.11-111.66c0.39-1.12,0.77-2.25,1.19-3.36l1.28-3.33l2.57-6.66
			l2.79-6.58l1.4-3.29l1.51-3.24l3.03-6.48l3.24-6.38l1.63-3.19c0.56-1.05,1.15-2.09,1.73-3.14l3.48-6.26
			c1.21-2.06,2.46-4.1,3.68-6.15l1.86-3.06c0.63-1.01,1.31-2,1.96-3l3.94-5.99c1.36-1.97,2.76-3.91,4.14-5.86l2.08-2.93
			c0.71-0.97,1.45-1.91,2.17-2.86l4.37-5.71l4.56-5.56l2.29-2.77l2.38-2.7l4.77-5.39l4.96-5.22l2.49-2.6l2.57-2.52l5.16-5.03
			l5.35-4.84c0.9-0.8,1.77-1.62,2.69-2.4l2.76-2.32c1.85-1.54,3.67-3.11,5.55-4.61l5.7-4.43c1.88-1.51,3.86-2.89,5.81-4.3l2.94-2.11
			c0.98-0.7,1.95-1.42,2.96-2.07c4.02-2.66,8.02-5.37,12.18-7.82l3.1-1.88l1.55-0.94l1.58-0.88l6.33-3.52
			c1.05-0.6,2.13-1.14,3.21-1.69l3.23-1.64c2.16-1.09,4.3-2.22,6.51-3.19l6.6-3.02c2.21-0.98,4.47-1.86,6.7-2.79l3.36-1.37
			c1.12-0.46,2.27-0.84,3.4-1.27l6.83-2.48c2.3-0.76,4.61-1.49,6.92-2.23l3.46-1.1l3.5-0.97l7.01-1.93l7.08-1.65l3.55-0.81
			l3.57-0.68c2.38-0.44,4.76-0.91,7.15-1.33l7.2-1.06c1.2-0.17,2.4-0.36,3.6-0.51l3.62-0.38c2.41-0.25,4.82-0.52,7.24-0.74
			l7.26-0.46l3.63-0.22l3.63-0.08l7.27-0.14l7.27,0.16l3.63,0.08c1.21,0.05,2.42,0.14,3.63,0.22l7.26,0.46
			c2.41,0.21,4.82,0.49,7.23,0.74l3.62,0.38c1.21,0.13,2.4,0.34,3.6,0.5l7.2,1.06c2.39,0.4,4.77,0.89,7.15,1.33l3.57,0.69
			c1.19,0.22,2.36,0.54,3.55,0.8l7.08,1.67c2.35,0.6,4.67,1.28,7.01,1.92l3.5,0.98c1.17,0.33,2.31,0.73,3.47,1.09l6.91,2.23
			c2.28,0.8,4.55,1.66,6.82,2.49l3.41,1.26c1.13,0.44,2.24,0.92,3.36,1.37l6.7,2.79l6.59,3.04l3.29,1.53l3.23,1.65l6.45,3.31
			l6.32,3.55c1.05,0.6,2.11,1.17,3.15,1.79l3.09,1.89c2.05,1.27,4.13,2.5,6.15,3.81l6.01,4.03c2.02,1.32,3.96,2.75,5.91,4.17
			c1.94,1.43,3.92,2.81,5.82,4.28c3.78,2.99,7.62,5.89,11.24,9.06l2.75,2.33c0.92,0.78,1.84,1.55,2.72,2.37l5.31,4.88
			c1.79,1.6,3.46,3.33,5.18,5.01l2.56,2.53c0.86,0.84,1.71,1.69,2.52,2.57c3.28,3.5,6.61,6.96,9.71,10.62
			c12.65,14.42,23.83,30.06,33.39,46.59c1.25,2.04,2.34,4.16,3.49,6.25c1.13,2.1,2.31,4.17,3.38,6.31c2.11,4.28,4.34,8.5,6.25,12.86
			c0.98,2.17,1.99,4.33,2.94,6.51l2.73,6.6c0.45,1.1,0.92,2.2,1.35,3.3l1.25,3.34l2.47,6.69c12.53,35.92,18.37,74,17.14,111.65
			c-0.2,6.15-5.35,10.97-11.5,10.77c-5.89-0.19-10.56-4.92-10.77-10.71l0-0.06c-1.21-35.07-8.05-69.75-20.82-102.03
			c-12.73-32.25-31.1-62.17-54.35-87.5c-11.56-12.72-24.46-24.13-38.16-34.34c-6.94-4.99-13.99-9.82-21.38-14.08l-2.74-1.64
			c-0.92-0.54-1.87-1.03-2.8-1.54l-5.61-3.07l-5.72-2.85l-2.86-1.42l-2.91-1.31l-5.82-2.61l-5.92-2.38
			c-0.99-0.39-1.96-0.81-2.96-1.19l-3-1.08c-2-0.71-3.99-1.45-6-2.14l-6.08-1.91c-1.01-0.31-2.02-0.66-3.04-0.94l-3.07-0.83
			c-2.05-0.54-4.09-1.13-6.15-1.64l-6.2-1.41c-1.04-0.22-2.06-0.5-3.11-0.68l-3.13-0.58c-2.09-0.38-4.16-0.81-6.26-1.15l-6.3-0.91
			c-1.05-0.14-2.09-0.33-3.15-0.44l-3.16-0.32c-2.11-0.21-4.22-0.46-6.33-0.64l-6.35-0.39c-1.06-0.06-2.12-0.14-3.18-0.19
			l-3.18-0.06l-6.37-0.13l-6.36,0.14l-3.18,0.06l-3.18,0.19l-6.35,0.38l-6.33,0.64l-3.16,0.32c-1.05,0.13-2.1,0.3-3.15,0.44
			l-6.3,0.9l-6.26,1.15l-3.13,0.58l-3.1,0.7l-6.21,1.4l-6.15,1.65l-3.07,0.83l-3.04,0.95l-6.08,1.9l-6,2.14
			c-1,0.36-2.01,0.69-2.99,1.09l-2.96,1.19c-1.97,0.8-3.96,1.55-5.91,2.4l-5.83,2.59c-30.94,14.18-58.97,34.9-82.15,60.26
			l-2.19,2.36l-2.11,2.44l-4.21,4.88l-4.04,5.03c-0.67,0.84-1.36,1.67-2.01,2.52l-1.93,2.59c-1.28,1.73-2.59,3.44-3.86,5.18
			l-3.68,5.31c-0.61,0.89-1.24,1.76-1.83,2.66l-1.75,2.72l-3.51,5.43l-3.33,5.55c-0.55,0.93-1.12,1.85-1.66,2.78l-1.57,2.84
			l-3.13,5.67l-2.94,5.78l-1.47,2.89l-1.37,2.94l-2.74,5.89l-2.53,5.98l-1.27,2.99c-0.41,1-0.79,2.02-1.2,3.02
			c-12.8,32.26-19.62,66.94-20.88,102.01l0,0.03c-0.22,6.15-5.38,10.96-11.53,10.74C592.83,891.94,588.18,887.17,587.97,881.39z"/>
	</g>
</g>
</svg>
